G04 #@! TF.FileFunction,Profile,NP*
%FSLAX46Y46*%
G04 Gerber Fmt 4.6, Leading zero omitted, Abs format (unit mm)*
G04 Created by KiCad (PCBNEW 4.0.7) date Sunday, 24 March 2019 'PMt' 22:49:59*
%MOMM*%
%LPD*%
G01*
G04 APERTURE LIST*
%ADD10C,0.100000*%
%ADD11C,0.150000*%
G04 APERTURE END LIST*
D10*
D11*
X67500000Y-115500000D02*
X67500000Y-117000000D01*
X67000000Y-115500000D02*
X68000000Y-115500000D01*
X66500000Y-117000000D02*
X66500000Y-115500000D01*
X65500000Y-117000000D02*
X66500000Y-117000000D01*
X65500000Y-115500000D02*
X65500000Y-117000000D01*
X64000000Y-117000000D02*
X65000000Y-117000000D01*
X64000000Y-115500000D02*
X64000000Y-117000000D01*
X65000000Y-115500000D02*
X64000000Y-115500000D01*
X62500000Y-116000000D02*
X63500000Y-116000000D01*
X61500000Y-117000000D02*
X62000000Y-115000000D01*
X61000000Y-115000000D02*
X61500000Y-117000000D01*
X130500000Y-115500000D02*
X130500000Y-117000000D01*
X130000000Y-115500000D02*
X131000000Y-115500000D01*
X129500000Y-117000000D02*
X129500000Y-115500000D01*
X128500000Y-117000000D02*
X129500000Y-117000000D01*
X128500000Y-115500000D02*
X128500000Y-117000000D01*
X127000000Y-117000000D02*
X128000000Y-117000000D01*
X127000000Y-115500000D02*
X127000000Y-117000000D01*
X128000000Y-115500000D02*
X127000000Y-115500000D01*
X125500000Y-116000000D02*
X126500000Y-116000000D01*
X124500000Y-117000000D02*
X125000000Y-115000000D01*
X124000000Y-115000000D02*
X124500000Y-117000000D01*
X69500000Y-116000000D02*
X68500000Y-115500000D01*
X69500000Y-116000000D02*
X68500000Y-116500000D01*
X122500000Y-116000000D02*
X123500000Y-116500000D01*
X122500000Y-116000000D02*
X123500000Y-115500000D01*
X70000000Y-128500000D02*
X122000000Y-128500000D01*
X70000000Y-116000000D02*
X122000000Y-116000000D01*
X70000000Y-75000000D02*
X122000000Y-75000000D01*
X122000000Y-75000000D02*
X122000000Y-128500000D01*
X70000000Y-75000000D02*
X70000000Y-128500000D01*
M02*
