G04 #@! TF.FileFunction,Copper,L2,Bot,Signal*
%FSLAX46Y46*%
G04 Gerber Fmt 4.6, Leading zero omitted, Abs format (unit mm)*
G04 Created by KiCad (PCBNEW 4.0.7) date Sunday, 24 March 2019 'PMt' 22:49:59*
%MOMM*%
%LPD*%
G01*
G04 APERTURE LIST*
%ADD10C,0.100000*%
%ADD11O,0.950000X1.250000*%
%ADD12O,1.550000X1.000000*%
%ADD13R,1.700000X1.700000*%
%ADD14O,1.700000X1.700000*%
%ADD15C,6.500000*%
%ADD16C,1.620000*%
%ADD17C,3.500000*%
%ADD18C,3.400000*%
%ADD19O,1.998980X1.998980*%
%ADD20R,1.998980X1.998980*%
%ADD21C,6.400000*%
%ADD22C,0.600000*%
%ADD23C,0.250000*%
%ADD24C,0.254000*%
G04 APERTURE END LIST*
D10*
D11*
X74350000Y-84500000D03*
X74350000Y-89500000D03*
D12*
X71650000Y-83500000D03*
X71650000Y-90500000D03*
D11*
X74350000Y-101500000D03*
X74350000Y-106500000D03*
D12*
X71650000Y-100500000D03*
X71650000Y-107500000D03*
D13*
X119500000Y-98000000D03*
D14*
X119500000Y-100540000D03*
X119500000Y-103080000D03*
X119500000Y-105620000D03*
D15*
X96000000Y-125500000D03*
X107500000Y-125500000D03*
X117500000Y-125500000D03*
X84500000Y-125500000D03*
X74500000Y-125500000D03*
D16*
X91500000Y-83000000D03*
X94000000Y-83000000D03*
X96000000Y-83000000D03*
X98500000Y-83000000D03*
D17*
X88430000Y-86000000D03*
D18*
X101570000Y-86000000D03*
D19*
X118500000Y-88420000D03*
D20*
X118500000Y-93500000D03*
D19*
X118500000Y-90960000D03*
D13*
X78230000Y-114475000D03*
D14*
X80770000Y-114475000D03*
D13*
X91520000Y-114475000D03*
D14*
X88980000Y-114475000D03*
D13*
X113770000Y-114475000D03*
D14*
X111230000Y-114475000D03*
D21*
X118000000Y-112000000D03*
X74000000Y-79000000D03*
X74000000Y-112000000D03*
X118000000Y-79000000D03*
D22*
X93500000Y-96000000D03*
X99000000Y-100000000D03*
X91250000Y-100000000D03*
X94250000Y-100000000D03*
X92750000Y-100000000D03*
X92000000Y-99250000D03*
X93500000Y-99250000D03*
X94250000Y-98500000D03*
X92750000Y-98500000D03*
X91250000Y-98500000D03*
X91250000Y-97000000D03*
X92000000Y-97750000D03*
X97250000Y-100000000D03*
X95750000Y-100000000D03*
X95000000Y-99250000D03*
X95750000Y-98500000D03*
X96500000Y-99250000D03*
X97250000Y-98500000D03*
X99000000Y-99250000D03*
X99000000Y-98500000D03*
X99000000Y-97000000D03*
X99000000Y-97750000D03*
X97250000Y-97000000D03*
X93500000Y-97750000D03*
X95000000Y-97750000D03*
X96500000Y-97750000D03*
X92750000Y-97000000D03*
X94250000Y-97000000D03*
X95750000Y-97000000D03*
X95000000Y-96000000D03*
X110000000Y-110500000D03*
X105000000Y-113000000D03*
X73000000Y-105250000D03*
X75750000Y-105250000D03*
X73000000Y-88250000D03*
X75500000Y-88250000D03*
X91000000Y-92000000D03*
X93000000Y-80500000D03*
X112500000Y-110500000D03*
X92000000Y-103500000D03*
X98000000Y-101500000D03*
X98000000Y-95500000D03*
X112000000Y-112000000D03*
X112000000Y-112000000D03*
X109816568Y-114000000D03*
X117629416Y-104000000D03*
D23*
X91250000Y-99250000D02*
X91250000Y-100000000D01*
X93500000Y-100000000D02*
X94250000Y-100000000D01*
X92000000Y-100000000D02*
X92750000Y-100000000D01*
X92750000Y-99250000D02*
X92000000Y-99250000D01*
X94250000Y-99250000D02*
X93500000Y-99250000D01*
X94250000Y-98500000D02*
X94250000Y-99250000D01*
X92750000Y-98500000D02*
X93500000Y-98500000D01*
X92750000Y-97000000D02*
X92325736Y-97000000D01*
X93000000Y-80500000D02*
X93500000Y-80500000D01*
X93500000Y-80500000D02*
X96000000Y-83000000D01*
X96000000Y-82500000D02*
X96000000Y-83000000D01*
X111500000Y-111500000D02*
X112500000Y-110500000D01*
X111500000Y-111500000D02*
X108525000Y-114475000D01*
X108525000Y-114475000D02*
X91520000Y-114475000D01*
X92000000Y-107500000D02*
X92000000Y-103500000D01*
X88980000Y-114475000D02*
X88980000Y-110520000D01*
X88980000Y-110520000D02*
X92000000Y-107500000D01*
X98000000Y-101500000D02*
X98000000Y-95500000D01*
X111500000Y-112500000D02*
X112000000Y-112000000D01*
X111316568Y-112500000D02*
X111500000Y-112500000D01*
X109816568Y-114000000D02*
X111316568Y-112500000D01*
X117629416Y-104000000D02*
X117629416Y-103575736D01*
X117629416Y-103575736D02*
X117223109Y-103169429D01*
X117223109Y-103169429D02*
X117223109Y-92236891D01*
X117223109Y-92236891D02*
X117500511Y-91959489D01*
X117500511Y-91959489D02*
X118500000Y-90960000D01*
D24*
G36*
X71849754Y-75734181D02*
X71805640Y-75763657D01*
X71438695Y-76259090D01*
X74000000Y-78820395D01*
X76561305Y-76259090D01*
X76194360Y-75763657D01*
X75870669Y-75627000D01*
X116113560Y-75627000D01*
X115849754Y-75734181D01*
X115805640Y-75763657D01*
X115438695Y-76259090D01*
X118000000Y-78820395D01*
X120561305Y-76259090D01*
X120194360Y-75763657D01*
X119870669Y-75627000D01*
X121373000Y-75627000D01*
X121373000Y-77113560D01*
X121265819Y-76849754D01*
X121236343Y-76805640D01*
X120740910Y-76438695D01*
X118179605Y-79000000D01*
X120740910Y-81561305D01*
X121236343Y-81194360D01*
X121373000Y-80870669D01*
X121373000Y-87660212D01*
X121205702Y-87590744D01*
X120875746Y-87590456D01*
X120570796Y-87716459D01*
X120337279Y-87949569D01*
X120210744Y-88254298D01*
X120210456Y-88584254D01*
X120336459Y-88889204D01*
X120569569Y-89122721D01*
X120874298Y-89249256D01*
X121204254Y-89249544D01*
X121373000Y-89179819D01*
X121373000Y-90200212D01*
X121205702Y-90130744D01*
X120875746Y-90130456D01*
X120570796Y-90256459D01*
X120337279Y-90489569D01*
X120210744Y-90794298D01*
X120210456Y-91124254D01*
X120336459Y-91429204D01*
X120569569Y-91662721D01*
X120874298Y-91789256D01*
X121204254Y-91789544D01*
X121373000Y-91719819D01*
X121373000Y-92740212D01*
X121205702Y-92670744D01*
X120875746Y-92670456D01*
X120570796Y-92796459D01*
X120337279Y-93029569D01*
X120210744Y-93334298D01*
X120210456Y-93664254D01*
X120336459Y-93969204D01*
X120569569Y-94202721D01*
X120874298Y-94329256D01*
X121204254Y-94329544D01*
X121373000Y-94259819D01*
X121373000Y-110113560D01*
X121265819Y-109849754D01*
X121236343Y-109805640D01*
X120740910Y-109438695D01*
X118179605Y-112000000D01*
X120740910Y-114561305D01*
X121236343Y-114194360D01*
X121373000Y-113870669D01*
X121373000Y-115373000D01*
X119886440Y-115373000D01*
X120150246Y-115265819D01*
X120194360Y-115236343D01*
X120561305Y-114740910D01*
X118000000Y-112179605D01*
X117985858Y-112193748D01*
X117806253Y-112014143D01*
X117820395Y-112000000D01*
X115259090Y-109438695D01*
X114763657Y-109805640D01*
X114170264Y-111211171D01*
X114159913Y-112736793D01*
X114262788Y-112990000D01*
X114055750Y-112990000D01*
X113897000Y-113148750D01*
X113897000Y-114348000D01*
X113917000Y-114348000D01*
X113917000Y-114602000D01*
X113897000Y-114602000D01*
X113897000Y-114622000D01*
X113643000Y-114622000D01*
X113643000Y-114602000D01*
X113623000Y-114602000D01*
X113623000Y-114348000D01*
X113643000Y-114348000D01*
X113643000Y-113148750D01*
X113484250Y-112990000D01*
X112793690Y-112990000D01*
X112560301Y-113086673D01*
X112381673Y-113265302D01*
X112285000Y-113498691D01*
X112285000Y-114078838D01*
X112273430Y-114020671D01*
X112028606Y-113654268D01*
X111662203Y-113409444D01*
X111230000Y-113323474D01*
X111024033Y-113364443D01*
X111484076Y-112904400D01*
X111500000Y-112904400D01*
X111654757Y-112873617D01*
X111785954Y-112785954D01*
X111992515Y-112579393D01*
X112114744Y-112579500D01*
X112327775Y-112491478D01*
X112490905Y-112328632D01*
X112579299Y-112115755D01*
X112579500Y-111885256D01*
X112491478Y-111672225D01*
X112328632Y-111509095D01*
X112140805Y-111431103D01*
X112492515Y-111079393D01*
X112614744Y-111079500D01*
X112827775Y-110991478D01*
X112990905Y-110828632D01*
X113079299Y-110615755D01*
X113079500Y-110385256D01*
X112991478Y-110172225D01*
X112828632Y-110009095D01*
X112615755Y-109920701D01*
X112385256Y-109920500D01*
X112172225Y-110008522D01*
X112009095Y-110171368D01*
X111920701Y-110384245D01*
X111920594Y-110507498D01*
X108357492Y-114070600D01*
X92654873Y-114070600D01*
X92654873Y-113625000D01*
X92635391Y-113521461D01*
X92574199Y-113426366D01*
X92480832Y-113362571D01*
X92370000Y-113340127D01*
X90670000Y-113340127D01*
X90566461Y-113359609D01*
X90471366Y-113420801D01*
X90407571Y-113514168D01*
X90385127Y-113625000D01*
X90385127Y-115325000D01*
X90394159Y-115373000D01*
X89662967Y-115373000D01*
X89778606Y-115295732D01*
X90023430Y-114929329D01*
X90109400Y-114497126D01*
X90109400Y-114452874D01*
X90023430Y-114020671D01*
X89778606Y-113654268D01*
X89412203Y-113409444D01*
X89384400Y-113403914D01*
X89384400Y-110687508D01*
X90812818Y-109259090D01*
X115438695Y-109259090D01*
X118000000Y-111820395D01*
X120561305Y-109259090D01*
X120194360Y-108763657D01*
X118788829Y-108170264D01*
X117263207Y-108159913D01*
X115849754Y-108734181D01*
X115805640Y-108763657D01*
X115438695Y-109259090D01*
X90812818Y-109259090D01*
X92285954Y-107785954D01*
X92373617Y-107654757D01*
X92404400Y-107500000D01*
X92404400Y-105976890D01*
X118058524Y-105976890D01*
X118228355Y-106386924D01*
X118618642Y-106815183D01*
X119143108Y-107061486D01*
X119373000Y-106940819D01*
X119373000Y-105747000D01*
X119627000Y-105747000D01*
X119627000Y-106940819D01*
X119856892Y-107061486D01*
X120381358Y-106815183D01*
X120771645Y-106386924D01*
X120941476Y-105976890D01*
X120820155Y-105747000D01*
X119627000Y-105747000D01*
X119373000Y-105747000D01*
X118179845Y-105747000D01*
X118058524Y-105976890D01*
X92404400Y-105976890D01*
X92404400Y-105263110D01*
X118058524Y-105263110D01*
X118179845Y-105493000D01*
X119373000Y-105493000D01*
X119373000Y-105473000D01*
X119627000Y-105473000D01*
X119627000Y-105493000D01*
X120820155Y-105493000D01*
X120941476Y-105263110D01*
X120771645Y-104853076D01*
X120381358Y-104424817D01*
X119856892Y-104178514D01*
X119627002Y-104299180D01*
X119627002Y-104188539D01*
X119954329Y-104123430D01*
X120320732Y-103878606D01*
X120565556Y-103512203D01*
X120651526Y-103080000D01*
X120565556Y-102647797D01*
X120320732Y-102281394D01*
X119954329Y-102036570D01*
X119522126Y-101950600D01*
X119477874Y-101950600D01*
X119045671Y-102036570D01*
X118679268Y-102281394D01*
X118434444Y-102647797D01*
X118348474Y-103080000D01*
X118434444Y-103512203D01*
X118679268Y-103878606D01*
X119045671Y-104123430D01*
X119372998Y-104188539D01*
X119372998Y-104299180D01*
X119143108Y-104178514D01*
X118618642Y-104424817D01*
X118228355Y-104853076D01*
X118058524Y-105263110D01*
X92404400Y-105263110D01*
X92404400Y-103914986D01*
X92490905Y-103828632D01*
X92579299Y-103615755D01*
X92579500Y-103385256D01*
X92491478Y-103172225D01*
X92328632Y-103009095D01*
X92115755Y-102920701D01*
X91885256Y-102920500D01*
X91672225Y-103008522D01*
X91509095Y-103171368D01*
X91420701Y-103384245D01*
X91420500Y-103614744D01*
X91508522Y-103827775D01*
X91595600Y-103915005D01*
X91595600Y-107332492D01*
X88694046Y-110234046D01*
X88606383Y-110365243D01*
X88575600Y-110520000D01*
X88575600Y-113403914D01*
X88547797Y-113409444D01*
X88181394Y-113654268D01*
X87936570Y-114020671D01*
X87850600Y-114452874D01*
X87850600Y-114497126D01*
X87936570Y-114929329D01*
X88181394Y-115295732D01*
X88297033Y-115373000D01*
X81452967Y-115373000D01*
X81568606Y-115295732D01*
X81813430Y-114929329D01*
X81899400Y-114497126D01*
X81899400Y-114452874D01*
X81813430Y-114020671D01*
X81568606Y-113654268D01*
X81202203Y-113409444D01*
X80770000Y-113323474D01*
X80337797Y-113409444D01*
X79971394Y-113654268D01*
X79726570Y-114020671D01*
X79640600Y-114452874D01*
X79640600Y-114497126D01*
X79726570Y-114929329D01*
X79971394Y-115295732D01*
X80087033Y-115373000D01*
X79355153Y-115373000D01*
X79364873Y-115325000D01*
X79364873Y-113625000D01*
X79345391Y-113521461D01*
X79284199Y-113426366D01*
X79190832Y-113362571D01*
X79080000Y-113340127D01*
X77596987Y-113340127D01*
X77829736Y-112788829D01*
X77840087Y-111263207D01*
X77265819Y-109849754D01*
X77236343Y-109805640D01*
X76740910Y-109438695D01*
X74179605Y-112000000D01*
X76740910Y-114561305D01*
X77095127Y-114298952D01*
X77095127Y-115325000D01*
X77104159Y-115373000D01*
X75886440Y-115373000D01*
X76150246Y-115265819D01*
X76194360Y-115236343D01*
X76561305Y-114740910D01*
X74000000Y-112179605D01*
X71438695Y-114740910D01*
X71805640Y-115236343D01*
X72129331Y-115373000D01*
X70627000Y-115373000D01*
X70627000Y-113886440D01*
X70734181Y-114150246D01*
X70763657Y-114194360D01*
X71259090Y-114561305D01*
X73820395Y-112000000D01*
X71259090Y-109438695D01*
X70763657Y-109805640D01*
X70627000Y-110129331D01*
X70627000Y-109259090D01*
X71438695Y-109259090D01*
X74000000Y-111820395D01*
X76561305Y-109259090D01*
X76194360Y-108763657D01*
X74788829Y-108170264D01*
X73263207Y-108159913D01*
X72523682Y-108460373D01*
X72817368Y-108212763D01*
X73019119Y-107801874D01*
X72892954Y-107627000D01*
X71777000Y-107627000D01*
X71777000Y-108635000D01*
X72052000Y-108635000D01*
X72244423Y-108573832D01*
X71849754Y-108734181D01*
X71805640Y-108763657D01*
X71438695Y-109259090D01*
X70627000Y-109259090D01*
X70627000Y-108334481D01*
X70823322Y-108500002D01*
X71248000Y-108635000D01*
X71523000Y-108635000D01*
X71523000Y-107627000D01*
X71503000Y-107627000D01*
X71503000Y-107373000D01*
X71523000Y-107373000D01*
X71523000Y-106365000D01*
X71777000Y-106365000D01*
X71777000Y-107373000D01*
X72892954Y-107373000D01*
X73019119Y-107198126D01*
X72824191Y-106801131D01*
X73248771Y-106801131D01*
X73390432Y-107211049D01*
X73678179Y-107535552D01*
X74052062Y-107719268D01*
X74223000Y-107592734D01*
X74223000Y-106627000D01*
X74477000Y-106627000D01*
X74477000Y-107592734D01*
X74647938Y-107719268D01*
X75021821Y-107535552D01*
X75309568Y-107211049D01*
X75451229Y-106801131D01*
X75302563Y-106627000D01*
X74477000Y-106627000D01*
X74223000Y-106627000D01*
X73397437Y-106627000D01*
X73248771Y-106801131D01*
X72824191Y-106801131D01*
X72817368Y-106787237D01*
X72476678Y-106499998D01*
X72052000Y-106365000D01*
X71777000Y-106365000D01*
X71523000Y-106365000D01*
X71248000Y-106365000D01*
X70823322Y-106499998D01*
X70627000Y-106665519D01*
X70627000Y-106198869D01*
X73248771Y-106198869D01*
X73397437Y-106373000D01*
X74223000Y-106373000D01*
X74223000Y-105407266D01*
X74477000Y-105407266D01*
X74477000Y-106373000D01*
X75302563Y-106373000D01*
X75451229Y-106198869D01*
X75309568Y-105788951D01*
X75021821Y-105464448D01*
X74647938Y-105280732D01*
X74477000Y-105407266D01*
X74223000Y-105407266D01*
X74052062Y-105280732D01*
X73678179Y-105464448D01*
X73390432Y-105788951D01*
X73248771Y-106198869D01*
X70627000Y-106198869D01*
X70627000Y-101801131D01*
X73248771Y-101801131D01*
X73390432Y-102211049D01*
X73678179Y-102535552D01*
X74052062Y-102719268D01*
X74223000Y-102592734D01*
X74223000Y-101627000D01*
X74477000Y-101627000D01*
X74477000Y-102592734D01*
X74647938Y-102719268D01*
X75021821Y-102535552D01*
X75309568Y-102211049D01*
X75451229Y-101801131D01*
X75302563Y-101627000D01*
X74477000Y-101627000D01*
X74223000Y-101627000D01*
X73397437Y-101627000D01*
X73248771Y-101801131D01*
X70627000Y-101801131D01*
X70627000Y-101334481D01*
X70823322Y-101500002D01*
X71248000Y-101635000D01*
X71523000Y-101635000D01*
X71523000Y-100627000D01*
X71777000Y-100627000D01*
X71777000Y-101635000D01*
X72052000Y-101635000D01*
X72476678Y-101500002D01*
X72817368Y-101212763D01*
X72824190Y-101198869D01*
X73248771Y-101198869D01*
X73397437Y-101373000D01*
X74223000Y-101373000D01*
X74223000Y-100407266D01*
X74477000Y-100407266D01*
X74477000Y-101373000D01*
X75302563Y-101373000D01*
X75451229Y-101198869D01*
X75309568Y-100788951D01*
X75021821Y-100464448D01*
X74647938Y-100280732D01*
X74477000Y-100407266D01*
X74223000Y-100407266D01*
X74052062Y-100280732D01*
X73678179Y-100464448D01*
X73390432Y-100788951D01*
X73248771Y-101198869D01*
X72824190Y-101198869D01*
X73019119Y-100801874D01*
X72892954Y-100627000D01*
X71777000Y-100627000D01*
X71523000Y-100627000D01*
X71503000Y-100627000D01*
X71503000Y-100373000D01*
X71523000Y-100373000D01*
X71523000Y-99365000D01*
X71777000Y-99365000D01*
X71777000Y-100373000D01*
X72892954Y-100373000D01*
X73019119Y-100198126D01*
X72817368Y-99787237D01*
X72476678Y-99499998D01*
X72052000Y-99365000D01*
X71777000Y-99365000D01*
X71523000Y-99365000D01*
X71248000Y-99365000D01*
X70823322Y-99499998D01*
X70627000Y-99665519D01*
X70627000Y-95614744D01*
X97420500Y-95614744D01*
X97508522Y-95827775D01*
X97595600Y-95915005D01*
X97595600Y-101085014D01*
X97509095Y-101171368D01*
X97420701Y-101384245D01*
X97420500Y-101614744D01*
X97508522Y-101827775D01*
X97671368Y-101990905D01*
X97884245Y-102079299D01*
X98114744Y-102079500D01*
X98327775Y-101991478D01*
X98490905Y-101828632D01*
X98579299Y-101615755D01*
X98579500Y-101385256D01*
X98491478Y-101172225D01*
X98404400Y-101084995D01*
X98404400Y-95914986D01*
X98490905Y-95828632D01*
X98579299Y-95615755D01*
X98579500Y-95385256D01*
X98491478Y-95172225D01*
X98328632Y-95009095D01*
X98115755Y-94920701D01*
X97885256Y-94920500D01*
X97672225Y-95008522D01*
X97509095Y-95171368D01*
X97420701Y-95384245D01*
X97420500Y-95614744D01*
X70627000Y-95614744D01*
X70627000Y-92236891D01*
X116818709Y-92236891D01*
X116818709Y-103169429D01*
X116849492Y-103324186D01*
X116937155Y-103455383D01*
X117145832Y-103664060D01*
X117138511Y-103671368D01*
X117050117Y-103884245D01*
X117049916Y-104114744D01*
X117137938Y-104327775D01*
X117300784Y-104490905D01*
X117513661Y-104579299D01*
X117744160Y-104579500D01*
X117957191Y-104491478D01*
X118120321Y-104328632D01*
X118208715Y-104115755D01*
X118208916Y-103885256D01*
X118120894Y-103672225D01*
X118033816Y-103584995D01*
X118033816Y-103575736D01*
X118003033Y-103420979D01*
X117915370Y-103289782D01*
X117627509Y-103001921D01*
X117627509Y-100540000D01*
X118348474Y-100540000D01*
X118434444Y-100972203D01*
X118679268Y-101338606D01*
X119045671Y-101583430D01*
X119477874Y-101669400D01*
X119522126Y-101669400D01*
X119954329Y-101583430D01*
X120320732Y-101338606D01*
X120565556Y-100972203D01*
X120651526Y-100540000D01*
X120565556Y-100107797D01*
X120320732Y-99741394D01*
X119954329Y-99496570D01*
X119522126Y-99410600D01*
X119477874Y-99410600D01*
X119045671Y-99496570D01*
X118679268Y-99741394D01*
X118434444Y-100107797D01*
X118348474Y-100540000D01*
X117627509Y-100540000D01*
X117627509Y-97150000D01*
X118365127Y-97150000D01*
X118365127Y-98850000D01*
X118384609Y-98953539D01*
X118445801Y-99048634D01*
X118539168Y-99112429D01*
X118650000Y-99134873D01*
X120350000Y-99134873D01*
X120453539Y-99115391D01*
X120548634Y-99054199D01*
X120612429Y-98960832D01*
X120634873Y-98850000D01*
X120634873Y-97150000D01*
X120615391Y-97046461D01*
X120554199Y-96951366D01*
X120460832Y-96887571D01*
X120350000Y-96865127D01*
X118650000Y-96865127D01*
X118546461Y-96884609D01*
X118451366Y-96945801D01*
X118387571Y-97039168D01*
X118365127Y-97150000D01*
X117627509Y-97150000D01*
X117627509Y-94784363D01*
X119499490Y-94784363D01*
X119603029Y-94764881D01*
X119698124Y-94703689D01*
X119761919Y-94610322D01*
X119784363Y-94499490D01*
X119784363Y-92500510D01*
X119764881Y-92396971D01*
X119703689Y-92301876D01*
X119610322Y-92238081D01*
X119499490Y-92215637D01*
X118742860Y-92215637D01*
X118989410Y-92166595D01*
X119404312Y-91889367D01*
X119681540Y-91474465D01*
X119778890Y-90985055D01*
X119778890Y-90934945D01*
X119681540Y-90445535D01*
X119404312Y-90030633D01*
X118989410Y-89753405D01*
X118670653Y-89690000D01*
X118989410Y-89626595D01*
X119404312Y-89349367D01*
X119681540Y-88934465D01*
X119778890Y-88445055D01*
X119778890Y-88394945D01*
X119681540Y-87905535D01*
X119404312Y-87490633D01*
X118989410Y-87213405D01*
X118500000Y-87116055D01*
X118010590Y-87213405D01*
X117595688Y-87490633D01*
X117318460Y-87905535D01*
X117221110Y-88394945D01*
X117221110Y-88445055D01*
X117318460Y-88934465D01*
X117595688Y-89349367D01*
X118010590Y-89626595D01*
X118329347Y-89690000D01*
X118010590Y-89753405D01*
X117595688Y-90030633D01*
X117318460Y-90445535D01*
X117221110Y-90934945D01*
X117221110Y-90985055D01*
X117318460Y-91474465D01*
X117356578Y-91531514D01*
X116937155Y-91950937D01*
X116849492Y-92082134D01*
X116818709Y-92236891D01*
X70627000Y-92236891D01*
X70627000Y-91334481D01*
X70823322Y-91500002D01*
X71248000Y-91635000D01*
X71523000Y-91635000D01*
X71523000Y-90627000D01*
X71777000Y-90627000D01*
X71777000Y-91635000D01*
X72052000Y-91635000D01*
X72476678Y-91500002D01*
X72817368Y-91212763D01*
X73019119Y-90801874D01*
X72892954Y-90627000D01*
X71777000Y-90627000D01*
X71523000Y-90627000D01*
X71503000Y-90627000D01*
X71503000Y-90373000D01*
X71523000Y-90373000D01*
X71523000Y-89365000D01*
X71777000Y-89365000D01*
X71777000Y-90373000D01*
X72892954Y-90373000D01*
X73019119Y-90198126D01*
X72824191Y-89801131D01*
X73248771Y-89801131D01*
X73390432Y-90211049D01*
X73678179Y-90535552D01*
X74052062Y-90719268D01*
X74223000Y-90592734D01*
X74223000Y-89627000D01*
X74477000Y-89627000D01*
X74477000Y-90592734D01*
X74647938Y-90719268D01*
X75021821Y-90535552D01*
X75309568Y-90211049D01*
X75451229Y-89801131D01*
X75302563Y-89627000D01*
X74477000Y-89627000D01*
X74223000Y-89627000D01*
X73397437Y-89627000D01*
X73248771Y-89801131D01*
X72824191Y-89801131D01*
X72817368Y-89787237D01*
X72476678Y-89499998D01*
X72052000Y-89365000D01*
X71777000Y-89365000D01*
X71523000Y-89365000D01*
X71248000Y-89365000D01*
X70823322Y-89499998D01*
X70627000Y-89665519D01*
X70627000Y-89198869D01*
X73248771Y-89198869D01*
X73397437Y-89373000D01*
X74223000Y-89373000D01*
X74223000Y-88407266D01*
X74477000Y-88407266D01*
X74477000Y-89373000D01*
X75302563Y-89373000D01*
X75451229Y-89198869D01*
X75309568Y-88788951D01*
X75021821Y-88464448D01*
X74647938Y-88280732D01*
X74477000Y-88407266D01*
X74223000Y-88407266D01*
X74052062Y-88280732D01*
X73678179Y-88464448D01*
X73390432Y-88788951D01*
X73248771Y-89198869D01*
X70627000Y-89198869D01*
X70627000Y-87694528D01*
X86915077Y-87694528D01*
X87105364Y-88039271D01*
X87986591Y-88390956D01*
X88935323Y-88378641D01*
X89754636Y-88039271D01*
X89944923Y-87694528D01*
X89908817Y-87658422D01*
X100091183Y-87658422D01*
X100275371Y-87997970D01*
X101138509Y-88341316D01*
X102067336Y-88328218D01*
X102864629Y-87997970D01*
X103048817Y-87658422D01*
X101570000Y-86179605D01*
X100091183Y-87658422D01*
X89908817Y-87658422D01*
X88430000Y-86179605D01*
X86915077Y-87694528D01*
X70627000Y-87694528D01*
X70627000Y-84801131D01*
X73248771Y-84801131D01*
X73390432Y-85211049D01*
X73678179Y-85535552D01*
X74052062Y-85719268D01*
X74223000Y-85592734D01*
X74223000Y-84627000D01*
X74477000Y-84627000D01*
X74477000Y-85592734D01*
X74647938Y-85719268D01*
X74979004Y-85556591D01*
X86039044Y-85556591D01*
X86051359Y-86505323D01*
X86390729Y-87324636D01*
X86735472Y-87514923D01*
X88250395Y-86000000D01*
X88609605Y-86000000D01*
X90124528Y-87514923D01*
X90469271Y-87324636D01*
X90820956Y-86443409D01*
X90809600Y-85568509D01*
X99228684Y-85568509D01*
X99241782Y-86497336D01*
X99572030Y-87294629D01*
X99911578Y-87478817D01*
X101390395Y-86000000D01*
X101749605Y-86000000D01*
X103228422Y-87478817D01*
X103567970Y-87294629D01*
X103911316Y-86431491D01*
X103898218Y-85502664D01*
X103567970Y-84705371D01*
X103228422Y-84521183D01*
X101749605Y-86000000D01*
X101390395Y-86000000D01*
X99911578Y-84521183D01*
X99572030Y-84705371D01*
X99228684Y-85568509D01*
X90809600Y-85568509D01*
X90808641Y-85494677D01*
X90469271Y-84675364D01*
X90124528Y-84485077D01*
X88609605Y-86000000D01*
X88250395Y-86000000D01*
X86735472Y-84485077D01*
X86390729Y-84675364D01*
X86039044Y-85556591D01*
X74979004Y-85556591D01*
X75021821Y-85535552D01*
X75309568Y-85211049D01*
X75451229Y-84801131D01*
X75302563Y-84627000D01*
X74477000Y-84627000D01*
X74223000Y-84627000D01*
X73397437Y-84627000D01*
X73248771Y-84801131D01*
X70627000Y-84801131D01*
X70627000Y-84334481D01*
X70823322Y-84500002D01*
X71248000Y-84635000D01*
X71523000Y-84635000D01*
X71523000Y-83627000D01*
X71777000Y-83627000D01*
X71777000Y-84635000D01*
X72052000Y-84635000D01*
X72476678Y-84500002D01*
X72817368Y-84212763D01*
X72824190Y-84198869D01*
X73248771Y-84198869D01*
X73397437Y-84373000D01*
X74223000Y-84373000D01*
X74223000Y-83407266D01*
X74477000Y-83407266D01*
X74477000Y-84373000D01*
X75302563Y-84373000D01*
X75360215Y-84305472D01*
X86915077Y-84305472D01*
X88430000Y-85820395D01*
X89944923Y-84305472D01*
X89754636Y-83960729D01*
X88873409Y-83609044D01*
X87924677Y-83621359D01*
X87105364Y-83960729D01*
X86915077Y-84305472D01*
X75360215Y-84305472D01*
X75451229Y-84198869D01*
X75309568Y-83788951D01*
X75021821Y-83464448D01*
X74647938Y-83280732D01*
X74477000Y-83407266D01*
X74223000Y-83407266D01*
X74052062Y-83280732D01*
X73678179Y-83464448D01*
X73390432Y-83788951D01*
X73248771Y-84198869D01*
X72824190Y-84198869D01*
X73019119Y-83801874D01*
X72892954Y-83627000D01*
X71777000Y-83627000D01*
X71523000Y-83627000D01*
X71503000Y-83627000D01*
X71503000Y-83373000D01*
X71523000Y-83373000D01*
X71523000Y-82365000D01*
X71248000Y-82365000D01*
X70823322Y-82499998D01*
X70627000Y-82665519D01*
X70627000Y-81740910D01*
X71438695Y-81740910D01*
X71805640Y-82236343D01*
X72288313Y-82440120D01*
X72052000Y-82365000D01*
X71777000Y-82365000D01*
X71777000Y-83373000D01*
X72892954Y-83373000D01*
X73006408Y-83215744D01*
X90410411Y-83215744D01*
X90575913Y-83616290D01*
X90882099Y-83923010D01*
X91282354Y-84089211D01*
X91715744Y-84089589D01*
X92116290Y-83924087D01*
X92423010Y-83617901D01*
X92589211Y-83217646D01*
X92589589Y-82784256D01*
X92424087Y-82383710D01*
X92117901Y-82076990D01*
X91717646Y-81910789D01*
X91284256Y-81910411D01*
X90883710Y-82075913D01*
X90576990Y-82382099D01*
X90410789Y-82782354D01*
X90410411Y-83215744D01*
X73006408Y-83215744D01*
X73019119Y-83198126D01*
X72817368Y-82787237D01*
X72523353Y-82539350D01*
X73211171Y-82829736D01*
X74736793Y-82840087D01*
X76150246Y-82265819D01*
X76194360Y-82236343D01*
X76561305Y-81740910D01*
X74000000Y-79179605D01*
X71438695Y-81740910D01*
X70627000Y-81740910D01*
X70627000Y-80886440D01*
X70734181Y-81150246D01*
X70763657Y-81194360D01*
X71259090Y-81561305D01*
X73820395Y-79000000D01*
X74179605Y-79000000D01*
X76740910Y-81561305D01*
X77236343Y-81194360D01*
X77481047Y-80614744D01*
X92420500Y-80614744D01*
X92508522Y-80827775D01*
X92671368Y-80990905D01*
X92884245Y-81079299D01*
X93114744Y-81079500D01*
X93327775Y-80991478D01*
X93373712Y-80945620D01*
X94424970Y-81996878D01*
X94217646Y-81910789D01*
X93784256Y-81910411D01*
X93383710Y-82075913D01*
X93076990Y-82382099D01*
X92910789Y-82782354D01*
X92910411Y-83215744D01*
X93075913Y-83616290D01*
X93382099Y-83923010D01*
X93782354Y-84089211D01*
X94215744Y-84089589D01*
X94616290Y-83924087D01*
X94923010Y-83617901D01*
X94999984Y-83432528D01*
X95075913Y-83616290D01*
X95382099Y-83923010D01*
X95782354Y-84089211D01*
X96215744Y-84089589D01*
X96396292Y-84014988D01*
X97664617Y-84014988D01*
X97739980Y-84262144D01*
X98280834Y-84456916D01*
X98855055Y-84429886D01*
X99068249Y-84341578D01*
X100091183Y-84341578D01*
X101570000Y-85820395D01*
X103048817Y-84341578D01*
X102864629Y-84002030D01*
X102001491Y-83658684D01*
X101072664Y-83671782D01*
X100275371Y-84002030D01*
X100091183Y-84341578D01*
X99068249Y-84341578D01*
X99260020Y-84262144D01*
X99335383Y-84014988D01*
X98500000Y-83179605D01*
X97664617Y-84014988D01*
X96396292Y-84014988D01*
X96616290Y-83924087D01*
X96923010Y-83617901D01*
X97066249Y-83272945D01*
X97070114Y-83355055D01*
X97237856Y-83760020D01*
X97485012Y-83835383D01*
X98320395Y-83000000D01*
X98679605Y-83000000D01*
X99514988Y-83835383D01*
X99762144Y-83760020D01*
X99956916Y-83219166D01*
X99929886Y-82644945D01*
X99762144Y-82239980D01*
X99514988Y-82164617D01*
X98679605Y-83000000D01*
X98320395Y-83000000D01*
X97485012Y-82164617D01*
X97237856Y-82239980D01*
X97064082Y-82722525D01*
X96924087Y-82383710D01*
X96617901Y-82076990D01*
X96396395Y-81985012D01*
X97664617Y-81985012D01*
X98500000Y-82820395D01*
X99335383Y-81985012D01*
X99260952Y-81740910D01*
X115438695Y-81740910D01*
X115805640Y-82236343D01*
X117211171Y-82829736D01*
X118736793Y-82840087D01*
X120150246Y-82265819D01*
X120194360Y-82236343D01*
X120561305Y-81740910D01*
X118000000Y-79179605D01*
X115438695Y-81740910D01*
X99260952Y-81740910D01*
X99260020Y-81737856D01*
X98719166Y-81543084D01*
X98144945Y-81570114D01*
X97739980Y-81737856D01*
X97664617Y-81985012D01*
X96396395Y-81985012D01*
X96217646Y-81910789D01*
X95784256Y-81910411D01*
X95570600Y-81998692D01*
X93785954Y-80214046D01*
X93654757Y-80126383D01*
X93500000Y-80095600D01*
X93414986Y-80095600D01*
X93328632Y-80009095D01*
X93115755Y-79920701D01*
X92885256Y-79920500D01*
X92672225Y-80008522D01*
X92509095Y-80171368D01*
X92420701Y-80384245D01*
X92420500Y-80614744D01*
X77481047Y-80614744D01*
X77829736Y-79788829D01*
X77830089Y-79736793D01*
X114159913Y-79736793D01*
X114734181Y-81150246D01*
X114763657Y-81194360D01*
X115259090Y-81561305D01*
X117820395Y-79000000D01*
X115259090Y-76438695D01*
X114763657Y-76805640D01*
X114170264Y-78211171D01*
X114159913Y-79736793D01*
X77830089Y-79736793D01*
X77840087Y-78263207D01*
X77265819Y-76849754D01*
X77236343Y-76805640D01*
X76740910Y-76438695D01*
X74179605Y-79000000D01*
X73820395Y-79000000D01*
X71259090Y-76438695D01*
X70763657Y-76805640D01*
X70627000Y-77129331D01*
X70627000Y-75627000D01*
X72113560Y-75627000D01*
X71849754Y-75734181D01*
X71849754Y-75734181D01*
G37*
X71849754Y-75734181D02*
X71805640Y-75763657D01*
X71438695Y-76259090D01*
X74000000Y-78820395D01*
X76561305Y-76259090D01*
X76194360Y-75763657D01*
X75870669Y-75627000D01*
X116113560Y-75627000D01*
X115849754Y-75734181D01*
X115805640Y-75763657D01*
X115438695Y-76259090D01*
X118000000Y-78820395D01*
X120561305Y-76259090D01*
X120194360Y-75763657D01*
X119870669Y-75627000D01*
X121373000Y-75627000D01*
X121373000Y-77113560D01*
X121265819Y-76849754D01*
X121236343Y-76805640D01*
X120740910Y-76438695D01*
X118179605Y-79000000D01*
X120740910Y-81561305D01*
X121236343Y-81194360D01*
X121373000Y-80870669D01*
X121373000Y-87660212D01*
X121205702Y-87590744D01*
X120875746Y-87590456D01*
X120570796Y-87716459D01*
X120337279Y-87949569D01*
X120210744Y-88254298D01*
X120210456Y-88584254D01*
X120336459Y-88889204D01*
X120569569Y-89122721D01*
X120874298Y-89249256D01*
X121204254Y-89249544D01*
X121373000Y-89179819D01*
X121373000Y-90200212D01*
X121205702Y-90130744D01*
X120875746Y-90130456D01*
X120570796Y-90256459D01*
X120337279Y-90489569D01*
X120210744Y-90794298D01*
X120210456Y-91124254D01*
X120336459Y-91429204D01*
X120569569Y-91662721D01*
X120874298Y-91789256D01*
X121204254Y-91789544D01*
X121373000Y-91719819D01*
X121373000Y-92740212D01*
X121205702Y-92670744D01*
X120875746Y-92670456D01*
X120570796Y-92796459D01*
X120337279Y-93029569D01*
X120210744Y-93334298D01*
X120210456Y-93664254D01*
X120336459Y-93969204D01*
X120569569Y-94202721D01*
X120874298Y-94329256D01*
X121204254Y-94329544D01*
X121373000Y-94259819D01*
X121373000Y-110113560D01*
X121265819Y-109849754D01*
X121236343Y-109805640D01*
X120740910Y-109438695D01*
X118179605Y-112000000D01*
X120740910Y-114561305D01*
X121236343Y-114194360D01*
X121373000Y-113870669D01*
X121373000Y-115373000D01*
X119886440Y-115373000D01*
X120150246Y-115265819D01*
X120194360Y-115236343D01*
X120561305Y-114740910D01*
X118000000Y-112179605D01*
X117985858Y-112193748D01*
X117806253Y-112014143D01*
X117820395Y-112000000D01*
X115259090Y-109438695D01*
X114763657Y-109805640D01*
X114170264Y-111211171D01*
X114159913Y-112736793D01*
X114262788Y-112990000D01*
X114055750Y-112990000D01*
X113897000Y-113148750D01*
X113897000Y-114348000D01*
X113917000Y-114348000D01*
X113917000Y-114602000D01*
X113897000Y-114602000D01*
X113897000Y-114622000D01*
X113643000Y-114622000D01*
X113643000Y-114602000D01*
X113623000Y-114602000D01*
X113623000Y-114348000D01*
X113643000Y-114348000D01*
X113643000Y-113148750D01*
X113484250Y-112990000D01*
X112793690Y-112990000D01*
X112560301Y-113086673D01*
X112381673Y-113265302D01*
X112285000Y-113498691D01*
X112285000Y-114078838D01*
X112273430Y-114020671D01*
X112028606Y-113654268D01*
X111662203Y-113409444D01*
X111230000Y-113323474D01*
X111024033Y-113364443D01*
X111484076Y-112904400D01*
X111500000Y-112904400D01*
X111654757Y-112873617D01*
X111785954Y-112785954D01*
X111992515Y-112579393D01*
X112114744Y-112579500D01*
X112327775Y-112491478D01*
X112490905Y-112328632D01*
X112579299Y-112115755D01*
X112579500Y-111885256D01*
X112491478Y-111672225D01*
X112328632Y-111509095D01*
X112140805Y-111431103D01*
X112492515Y-111079393D01*
X112614744Y-111079500D01*
X112827775Y-110991478D01*
X112990905Y-110828632D01*
X113079299Y-110615755D01*
X113079500Y-110385256D01*
X112991478Y-110172225D01*
X112828632Y-110009095D01*
X112615755Y-109920701D01*
X112385256Y-109920500D01*
X112172225Y-110008522D01*
X112009095Y-110171368D01*
X111920701Y-110384245D01*
X111920594Y-110507498D01*
X108357492Y-114070600D01*
X92654873Y-114070600D01*
X92654873Y-113625000D01*
X92635391Y-113521461D01*
X92574199Y-113426366D01*
X92480832Y-113362571D01*
X92370000Y-113340127D01*
X90670000Y-113340127D01*
X90566461Y-113359609D01*
X90471366Y-113420801D01*
X90407571Y-113514168D01*
X90385127Y-113625000D01*
X90385127Y-115325000D01*
X90394159Y-115373000D01*
X89662967Y-115373000D01*
X89778606Y-115295732D01*
X90023430Y-114929329D01*
X90109400Y-114497126D01*
X90109400Y-114452874D01*
X90023430Y-114020671D01*
X89778606Y-113654268D01*
X89412203Y-113409444D01*
X89384400Y-113403914D01*
X89384400Y-110687508D01*
X90812818Y-109259090D01*
X115438695Y-109259090D01*
X118000000Y-111820395D01*
X120561305Y-109259090D01*
X120194360Y-108763657D01*
X118788829Y-108170264D01*
X117263207Y-108159913D01*
X115849754Y-108734181D01*
X115805640Y-108763657D01*
X115438695Y-109259090D01*
X90812818Y-109259090D01*
X92285954Y-107785954D01*
X92373617Y-107654757D01*
X92404400Y-107500000D01*
X92404400Y-105976890D01*
X118058524Y-105976890D01*
X118228355Y-106386924D01*
X118618642Y-106815183D01*
X119143108Y-107061486D01*
X119373000Y-106940819D01*
X119373000Y-105747000D01*
X119627000Y-105747000D01*
X119627000Y-106940819D01*
X119856892Y-107061486D01*
X120381358Y-106815183D01*
X120771645Y-106386924D01*
X120941476Y-105976890D01*
X120820155Y-105747000D01*
X119627000Y-105747000D01*
X119373000Y-105747000D01*
X118179845Y-105747000D01*
X118058524Y-105976890D01*
X92404400Y-105976890D01*
X92404400Y-105263110D01*
X118058524Y-105263110D01*
X118179845Y-105493000D01*
X119373000Y-105493000D01*
X119373000Y-105473000D01*
X119627000Y-105473000D01*
X119627000Y-105493000D01*
X120820155Y-105493000D01*
X120941476Y-105263110D01*
X120771645Y-104853076D01*
X120381358Y-104424817D01*
X119856892Y-104178514D01*
X119627002Y-104299180D01*
X119627002Y-104188539D01*
X119954329Y-104123430D01*
X120320732Y-103878606D01*
X120565556Y-103512203D01*
X120651526Y-103080000D01*
X120565556Y-102647797D01*
X120320732Y-102281394D01*
X119954329Y-102036570D01*
X119522126Y-101950600D01*
X119477874Y-101950600D01*
X119045671Y-102036570D01*
X118679268Y-102281394D01*
X118434444Y-102647797D01*
X118348474Y-103080000D01*
X118434444Y-103512203D01*
X118679268Y-103878606D01*
X119045671Y-104123430D01*
X119372998Y-104188539D01*
X119372998Y-104299180D01*
X119143108Y-104178514D01*
X118618642Y-104424817D01*
X118228355Y-104853076D01*
X118058524Y-105263110D01*
X92404400Y-105263110D01*
X92404400Y-103914986D01*
X92490905Y-103828632D01*
X92579299Y-103615755D01*
X92579500Y-103385256D01*
X92491478Y-103172225D01*
X92328632Y-103009095D01*
X92115755Y-102920701D01*
X91885256Y-102920500D01*
X91672225Y-103008522D01*
X91509095Y-103171368D01*
X91420701Y-103384245D01*
X91420500Y-103614744D01*
X91508522Y-103827775D01*
X91595600Y-103915005D01*
X91595600Y-107332492D01*
X88694046Y-110234046D01*
X88606383Y-110365243D01*
X88575600Y-110520000D01*
X88575600Y-113403914D01*
X88547797Y-113409444D01*
X88181394Y-113654268D01*
X87936570Y-114020671D01*
X87850600Y-114452874D01*
X87850600Y-114497126D01*
X87936570Y-114929329D01*
X88181394Y-115295732D01*
X88297033Y-115373000D01*
X81452967Y-115373000D01*
X81568606Y-115295732D01*
X81813430Y-114929329D01*
X81899400Y-114497126D01*
X81899400Y-114452874D01*
X81813430Y-114020671D01*
X81568606Y-113654268D01*
X81202203Y-113409444D01*
X80770000Y-113323474D01*
X80337797Y-113409444D01*
X79971394Y-113654268D01*
X79726570Y-114020671D01*
X79640600Y-114452874D01*
X79640600Y-114497126D01*
X79726570Y-114929329D01*
X79971394Y-115295732D01*
X80087033Y-115373000D01*
X79355153Y-115373000D01*
X79364873Y-115325000D01*
X79364873Y-113625000D01*
X79345391Y-113521461D01*
X79284199Y-113426366D01*
X79190832Y-113362571D01*
X79080000Y-113340127D01*
X77596987Y-113340127D01*
X77829736Y-112788829D01*
X77840087Y-111263207D01*
X77265819Y-109849754D01*
X77236343Y-109805640D01*
X76740910Y-109438695D01*
X74179605Y-112000000D01*
X76740910Y-114561305D01*
X77095127Y-114298952D01*
X77095127Y-115325000D01*
X77104159Y-115373000D01*
X75886440Y-115373000D01*
X76150246Y-115265819D01*
X76194360Y-115236343D01*
X76561305Y-114740910D01*
X74000000Y-112179605D01*
X71438695Y-114740910D01*
X71805640Y-115236343D01*
X72129331Y-115373000D01*
X70627000Y-115373000D01*
X70627000Y-113886440D01*
X70734181Y-114150246D01*
X70763657Y-114194360D01*
X71259090Y-114561305D01*
X73820395Y-112000000D01*
X71259090Y-109438695D01*
X70763657Y-109805640D01*
X70627000Y-110129331D01*
X70627000Y-109259090D01*
X71438695Y-109259090D01*
X74000000Y-111820395D01*
X76561305Y-109259090D01*
X76194360Y-108763657D01*
X74788829Y-108170264D01*
X73263207Y-108159913D01*
X72523682Y-108460373D01*
X72817368Y-108212763D01*
X73019119Y-107801874D01*
X72892954Y-107627000D01*
X71777000Y-107627000D01*
X71777000Y-108635000D01*
X72052000Y-108635000D01*
X72244423Y-108573832D01*
X71849754Y-108734181D01*
X71805640Y-108763657D01*
X71438695Y-109259090D01*
X70627000Y-109259090D01*
X70627000Y-108334481D01*
X70823322Y-108500002D01*
X71248000Y-108635000D01*
X71523000Y-108635000D01*
X71523000Y-107627000D01*
X71503000Y-107627000D01*
X71503000Y-107373000D01*
X71523000Y-107373000D01*
X71523000Y-106365000D01*
X71777000Y-106365000D01*
X71777000Y-107373000D01*
X72892954Y-107373000D01*
X73019119Y-107198126D01*
X72824191Y-106801131D01*
X73248771Y-106801131D01*
X73390432Y-107211049D01*
X73678179Y-107535552D01*
X74052062Y-107719268D01*
X74223000Y-107592734D01*
X74223000Y-106627000D01*
X74477000Y-106627000D01*
X74477000Y-107592734D01*
X74647938Y-107719268D01*
X75021821Y-107535552D01*
X75309568Y-107211049D01*
X75451229Y-106801131D01*
X75302563Y-106627000D01*
X74477000Y-106627000D01*
X74223000Y-106627000D01*
X73397437Y-106627000D01*
X73248771Y-106801131D01*
X72824191Y-106801131D01*
X72817368Y-106787237D01*
X72476678Y-106499998D01*
X72052000Y-106365000D01*
X71777000Y-106365000D01*
X71523000Y-106365000D01*
X71248000Y-106365000D01*
X70823322Y-106499998D01*
X70627000Y-106665519D01*
X70627000Y-106198869D01*
X73248771Y-106198869D01*
X73397437Y-106373000D01*
X74223000Y-106373000D01*
X74223000Y-105407266D01*
X74477000Y-105407266D01*
X74477000Y-106373000D01*
X75302563Y-106373000D01*
X75451229Y-106198869D01*
X75309568Y-105788951D01*
X75021821Y-105464448D01*
X74647938Y-105280732D01*
X74477000Y-105407266D01*
X74223000Y-105407266D01*
X74052062Y-105280732D01*
X73678179Y-105464448D01*
X73390432Y-105788951D01*
X73248771Y-106198869D01*
X70627000Y-106198869D01*
X70627000Y-101801131D01*
X73248771Y-101801131D01*
X73390432Y-102211049D01*
X73678179Y-102535552D01*
X74052062Y-102719268D01*
X74223000Y-102592734D01*
X74223000Y-101627000D01*
X74477000Y-101627000D01*
X74477000Y-102592734D01*
X74647938Y-102719268D01*
X75021821Y-102535552D01*
X75309568Y-102211049D01*
X75451229Y-101801131D01*
X75302563Y-101627000D01*
X74477000Y-101627000D01*
X74223000Y-101627000D01*
X73397437Y-101627000D01*
X73248771Y-101801131D01*
X70627000Y-101801131D01*
X70627000Y-101334481D01*
X70823322Y-101500002D01*
X71248000Y-101635000D01*
X71523000Y-101635000D01*
X71523000Y-100627000D01*
X71777000Y-100627000D01*
X71777000Y-101635000D01*
X72052000Y-101635000D01*
X72476678Y-101500002D01*
X72817368Y-101212763D01*
X72824190Y-101198869D01*
X73248771Y-101198869D01*
X73397437Y-101373000D01*
X74223000Y-101373000D01*
X74223000Y-100407266D01*
X74477000Y-100407266D01*
X74477000Y-101373000D01*
X75302563Y-101373000D01*
X75451229Y-101198869D01*
X75309568Y-100788951D01*
X75021821Y-100464448D01*
X74647938Y-100280732D01*
X74477000Y-100407266D01*
X74223000Y-100407266D01*
X74052062Y-100280732D01*
X73678179Y-100464448D01*
X73390432Y-100788951D01*
X73248771Y-101198869D01*
X72824190Y-101198869D01*
X73019119Y-100801874D01*
X72892954Y-100627000D01*
X71777000Y-100627000D01*
X71523000Y-100627000D01*
X71503000Y-100627000D01*
X71503000Y-100373000D01*
X71523000Y-100373000D01*
X71523000Y-99365000D01*
X71777000Y-99365000D01*
X71777000Y-100373000D01*
X72892954Y-100373000D01*
X73019119Y-100198126D01*
X72817368Y-99787237D01*
X72476678Y-99499998D01*
X72052000Y-99365000D01*
X71777000Y-99365000D01*
X71523000Y-99365000D01*
X71248000Y-99365000D01*
X70823322Y-99499998D01*
X70627000Y-99665519D01*
X70627000Y-95614744D01*
X97420500Y-95614744D01*
X97508522Y-95827775D01*
X97595600Y-95915005D01*
X97595600Y-101085014D01*
X97509095Y-101171368D01*
X97420701Y-101384245D01*
X97420500Y-101614744D01*
X97508522Y-101827775D01*
X97671368Y-101990905D01*
X97884245Y-102079299D01*
X98114744Y-102079500D01*
X98327775Y-101991478D01*
X98490905Y-101828632D01*
X98579299Y-101615755D01*
X98579500Y-101385256D01*
X98491478Y-101172225D01*
X98404400Y-101084995D01*
X98404400Y-95914986D01*
X98490905Y-95828632D01*
X98579299Y-95615755D01*
X98579500Y-95385256D01*
X98491478Y-95172225D01*
X98328632Y-95009095D01*
X98115755Y-94920701D01*
X97885256Y-94920500D01*
X97672225Y-95008522D01*
X97509095Y-95171368D01*
X97420701Y-95384245D01*
X97420500Y-95614744D01*
X70627000Y-95614744D01*
X70627000Y-92236891D01*
X116818709Y-92236891D01*
X116818709Y-103169429D01*
X116849492Y-103324186D01*
X116937155Y-103455383D01*
X117145832Y-103664060D01*
X117138511Y-103671368D01*
X117050117Y-103884245D01*
X117049916Y-104114744D01*
X117137938Y-104327775D01*
X117300784Y-104490905D01*
X117513661Y-104579299D01*
X117744160Y-104579500D01*
X117957191Y-104491478D01*
X118120321Y-104328632D01*
X118208715Y-104115755D01*
X118208916Y-103885256D01*
X118120894Y-103672225D01*
X118033816Y-103584995D01*
X118033816Y-103575736D01*
X118003033Y-103420979D01*
X117915370Y-103289782D01*
X117627509Y-103001921D01*
X117627509Y-100540000D01*
X118348474Y-100540000D01*
X118434444Y-100972203D01*
X118679268Y-101338606D01*
X119045671Y-101583430D01*
X119477874Y-101669400D01*
X119522126Y-101669400D01*
X119954329Y-101583430D01*
X120320732Y-101338606D01*
X120565556Y-100972203D01*
X120651526Y-100540000D01*
X120565556Y-100107797D01*
X120320732Y-99741394D01*
X119954329Y-99496570D01*
X119522126Y-99410600D01*
X119477874Y-99410600D01*
X119045671Y-99496570D01*
X118679268Y-99741394D01*
X118434444Y-100107797D01*
X118348474Y-100540000D01*
X117627509Y-100540000D01*
X117627509Y-97150000D01*
X118365127Y-97150000D01*
X118365127Y-98850000D01*
X118384609Y-98953539D01*
X118445801Y-99048634D01*
X118539168Y-99112429D01*
X118650000Y-99134873D01*
X120350000Y-99134873D01*
X120453539Y-99115391D01*
X120548634Y-99054199D01*
X120612429Y-98960832D01*
X120634873Y-98850000D01*
X120634873Y-97150000D01*
X120615391Y-97046461D01*
X120554199Y-96951366D01*
X120460832Y-96887571D01*
X120350000Y-96865127D01*
X118650000Y-96865127D01*
X118546461Y-96884609D01*
X118451366Y-96945801D01*
X118387571Y-97039168D01*
X118365127Y-97150000D01*
X117627509Y-97150000D01*
X117627509Y-94784363D01*
X119499490Y-94784363D01*
X119603029Y-94764881D01*
X119698124Y-94703689D01*
X119761919Y-94610322D01*
X119784363Y-94499490D01*
X119784363Y-92500510D01*
X119764881Y-92396971D01*
X119703689Y-92301876D01*
X119610322Y-92238081D01*
X119499490Y-92215637D01*
X118742860Y-92215637D01*
X118989410Y-92166595D01*
X119404312Y-91889367D01*
X119681540Y-91474465D01*
X119778890Y-90985055D01*
X119778890Y-90934945D01*
X119681540Y-90445535D01*
X119404312Y-90030633D01*
X118989410Y-89753405D01*
X118670653Y-89690000D01*
X118989410Y-89626595D01*
X119404312Y-89349367D01*
X119681540Y-88934465D01*
X119778890Y-88445055D01*
X119778890Y-88394945D01*
X119681540Y-87905535D01*
X119404312Y-87490633D01*
X118989410Y-87213405D01*
X118500000Y-87116055D01*
X118010590Y-87213405D01*
X117595688Y-87490633D01*
X117318460Y-87905535D01*
X117221110Y-88394945D01*
X117221110Y-88445055D01*
X117318460Y-88934465D01*
X117595688Y-89349367D01*
X118010590Y-89626595D01*
X118329347Y-89690000D01*
X118010590Y-89753405D01*
X117595688Y-90030633D01*
X117318460Y-90445535D01*
X117221110Y-90934945D01*
X117221110Y-90985055D01*
X117318460Y-91474465D01*
X117356578Y-91531514D01*
X116937155Y-91950937D01*
X116849492Y-92082134D01*
X116818709Y-92236891D01*
X70627000Y-92236891D01*
X70627000Y-91334481D01*
X70823322Y-91500002D01*
X71248000Y-91635000D01*
X71523000Y-91635000D01*
X71523000Y-90627000D01*
X71777000Y-90627000D01*
X71777000Y-91635000D01*
X72052000Y-91635000D01*
X72476678Y-91500002D01*
X72817368Y-91212763D01*
X73019119Y-90801874D01*
X72892954Y-90627000D01*
X71777000Y-90627000D01*
X71523000Y-90627000D01*
X71503000Y-90627000D01*
X71503000Y-90373000D01*
X71523000Y-90373000D01*
X71523000Y-89365000D01*
X71777000Y-89365000D01*
X71777000Y-90373000D01*
X72892954Y-90373000D01*
X73019119Y-90198126D01*
X72824191Y-89801131D01*
X73248771Y-89801131D01*
X73390432Y-90211049D01*
X73678179Y-90535552D01*
X74052062Y-90719268D01*
X74223000Y-90592734D01*
X74223000Y-89627000D01*
X74477000Y-89627000D01*
X74477000Y-90592734D01*
X74647938Y-90719268D01*
X75021821Y-90535552D01*
X75309568Y-90211049D01*
X75451229Y-89801131D01*
X75302563Y-89627000D01*
X74477000Y-89627000D01*
X74223000Y-89627000D01*
X73397437Y-89627000D01*
X73248771Y-89801131D01*
X72824191Y-89801131D01*
X72817368Y-89787237D01*
X72476678Y-89499998D01*
X72052000Y-89365000D01*
X71777000Y-89365000D01*
X71523000Y-89365000D01*
X71248000Y-89365000D01*
X70823322Y-89499998D01*
X70627000Y-89665519D01*
X70627000Y-89198869D01*
X73248771Y-89198869D01*
X73397437Y-89373000D01*
X74223000Y-89373000D01*
X74223000Y-88407266D01*
X74477000Y-88407266D01*
X74477000Y-89373000D01*
X75302563Y-89373000D01*
X75451229Y-89198869D01*
X75309568Y-88788951D01*
X75021821Y-88464448D01*
X74647938Y-88280732D01*
X74477000Y-88407266D01*
X74223000Y-88407266D01*
X74052062Y-88280732D01*
X73678179Y-88464448D01*
X73390432Y-88788951D01*
X73248771Y-89198869D01*
X70627000Y-89198869D01*
X70627000Y-87694528D01*
X86915077Y-87694528D01*
X87105364Y-88039271D01*
X87986591Y-88390956D01*
X88935323Y-88378641D01*
X89754636Y-88039271D01*
X89944923Y-87694528D01*
X89908817Y-87658422D01*
X100091183Y-87658422D01*
X100275371Y-87997970D01*
X101138509Y-88341316D01*
X102067336Y-88328218D01*
X102864629Y-87997970D01*
X103048817Y-87658422D01*
X101570000Y-86179605D01*
X100091183Y-87658422D01*
X89908817Y-87658422D01*
X88430000Y-86179605D01*
X86915077Y-87694528D01*
X70627000Y-87694528D01*
X70627000Y-84801131D01*
X73248771Y-84801131D01*
X73390432Y-85211049D01*
X73678179Y-85535552D01*
X74052062Y-85719268D01*
X74223000Y-85592734D01*
X74223000Y-84627000D01*
X74477000Y-84627000D01*
X74477000Y-85592734D01*
X74647938Y-85719268D01*
X74979004Y-85556591D01*
X86039044Y-85556591D01*
X86051359Y-86505323D01*
X86390729Y-87324636D01*
X86735472Y-87514923D01*
X88250395Y-86000000D01*
X88609605Y-86000000D01*
X90124528Y-87514923D01*
X90469271Y-87324636D01*
X90820956Y-86443409D01*
X90809600Y-85568509D01*
X99228684Y-85568509D01*
X99241782Y-86497336D01*
X99572030Y-87294629D01*
X99911578Y-87478817D01*
X101390395Y-86000000D01*
X101749605Y-86000000D01*
X103228422Y-87478817D01*
X103567970Y-87294629D01*
X103911316Y-86431491D01*
X103898218Y-85502664D01*
X103567970Y-84705371D01*
X103228422Y-84521183D01*
X101749605Y-86000000D01*
X101390395Y-86000000D01*
X99911578Y-84521183D01*
X99572030Y-84705371D01*
X99228684Y-85568509D01*
X90809600Y-85568509D01*
X90808641Y-85494677D01*
X90469271Y-84675364D01*
X90124528Y-84485077D01*
X88609605Y-86000000D01*
X88250395Y-86000000D01*
X86735472Y-84485077D01*
X86390729Y-84675364D01*
X86039044Y-85556591D01*
X74979004Y-85556591D01*
X75021821Y-85535552D01*
X75309568Y-85211049D01*
X75451229Y-84801131D01*
X75302563Y-84627000D01*
X74477000Y-84627000D01*
X74223000Y-84627000D01*
X73397437Y-84627000D01*
X73248771Y-84801131D01*
X70627000Y-84801131D01*
X70627000Y-84334481D01*
X70823322Y-84500002D01*
X71248000Y-84635000D01*
X71523000Y-84635000D01*
X71523000Y-83627000D01*
X71777000Y-83627000D01*
X71777000Y-84635000D01*
X72052000Y-84635000D01*
X72476678Y-84500002D01*
X72817368Y-84212763D01*
X72824190Y-84198869D01*
X73248771Y-84198869D01*
X73397437Y-84373000D01*
X74223000Y-84373000D01*
X74223000Y-83407266D01*
X74477000Y-83407266D01*
X74477000Y-84373000D01*
X75302563Y-84373000D01*
X75360215Y-84305472D01*
X86915077Y-84305472D01*
X88430000Y-85820395D01*
X89944923Y-84305472D01*
X89754636Y-83960729D01*
X88873409Y-83609044D01*
X87924677Y-83621359D01*
X87105364Y-83960729D01*
X86915077Y-84305472D01*
X75360215Y-84305472D01*
X75451229Y-84198869D01*
X75309568Y-83788951D01*
X75021821Y-83464448D01*
X74647938Y-83280732D01*
X74477000Y-83407266D01*
X74223000Y-83407266D01*
X74052062Y-83280732D01*
X73678179Y-83464448D01*
X73390432Y-83788951D01*
X73248771Y-84198869D01*
X72824190Y-84198869D01*
X73019119Y-83801874D01*
X72892954Y-83627000D01*
X71777000Y-83627000D01*
X71523000Y-83627000D01*
X71503000Y-83627000D01*
X71503000Y-83373000D01*
X71523000Y-83373000D01*
X71523000Y-82365000D01*
X71248000Y-82365000D01*
X70823322Y-82499998D01*
X70627000Y-82665519D01*
X70627000Y-81740910D01*
X71438695Y-81740910D01*
X71805640Y-82236343D01*
X72288313Y-82440120D01*
X72052000Y-82365000D01*
X71777000Y-82365000D01*
X71777000Y-83373000D01*
X72892954Y-83373000D01*
X73006408Y-83215744D01*
X90410411Y-83215744D01*
X90575913Y-83616290D01*
X90882099Y-83923010D01*
X91282354Y-84089211D01*
X91715744Y-84089589D01*
X92116290Y-83924087D01*
X92423010Y-83617901D01*
X92589211Y-83217646D01*
X92589589Y-82784256D01*
X92424087Y-82383710D01*
X92117901Y-82076990D01*
X91717646Y-81910789D01*
X91284256Y-81910411D01*
X90883710Y-82075913D01*
X90576990Y-82382099D01*
X90410789Y-82782354D01*
X90410411Y-83215744D01*
X73006408Y-83215744D01*
X73019119Y-83198126D01*
X72817368Y-82787237D01*
X72523353Y-82539350D01*
X73211171Y-82829736D01*
X74736793Y-82840087D01*
X76150246Y-82265819D01*
X76194360Y-82236343D01*
X76561305Y-81740910D01*
X74000000Y-79179605D01*
X71438695Y-81740910D01*
X70627000Y-81740910D01*
X70627000Y-80886440D01*
X70734181Y-81150246D01*
X70763657Y-81194360D01*
X71259090Y-81561305D01*
X73820395Y-79000000D01*
X74179605Y-79000000D01*
X76740910Y-81561305D01*
X77236343Y-81194360D01*
X77481047Y-80614744D01*
X92420500Y-80614744D01*
X92508522Y-80827775D01*
X92671368Y-80990905D01*
X92884245Y-81079299D01*
X93114744Y-81079500D01*
X93327775Y-80991478D01*
X93373712Y-80945620D01*
X94424970Y-81996878D01*
X94217646Y-81910789D01*
X93784256Y-81910411D01*
X93383710Y-82075913D01*
X93076990Y-82382099D01*
X92910789Y-82782354D01*
X92910411Y-83215744D01*
X93075913Y-83616290D01*
X93382099Y-83923010D01*
X93782354Y-84089211D01*
X94215744Y-84089589D01*
X94616290Y-83924087D01*
X94923010Y-83617901D01*
X94999984Y-83432528D01*
X95075913Y-83616290D01*
X95382099Y-83923010D01*
X95782354Y-84089211D01*
X96215744Y-84089589D01*
X96396292Y-84014988D01*
X97664617Y-84014988D01*
X97739980Y-84262144D01*
X98280834Y-84456916D01*
X98855055Y-84429886D01*
X99068249Y-84341578D01*
X100091183Y-84341578D01*
X101570000Y-85820395D01*
X103048817Y-84341578D01*
X102864629Y-84002030D01*
X102001491Y-83658684D01*
X101072664Y-83671782D01*
X100275371Y-84002030D01*
X100091183Y-84341578D01*
X99068249Y-84341578D01*
X99260020Y-84262144D01*
X99335383Y-84014988D01*
X98500000Y-83179605D01*
X97664617Y-84014988D01*
X96396292Y-84014988D01*
X96616290Y-83924087D01*
X96923010Y-83617901D01*
X97066249Y-83272945D01*
X97070114Y-83355055D01*
X97237856Y-83760020D01*
X97485012Y-83835383D01*
X98320395Y-83000000D01*
X98679605Y-83000000D01*
X99514988Y-83835383D01*
X99762144Y-83760020D01*
X99956916Y-83219166D01*
X99929886Y-82644945D01*
X99762144Y-82239980D01*
X99514988Y-82164617D01*
X98679605Y-83000000D01*
X98320395Y-83000000D01*
X97485012Y-82164617D01*
X97237856Y-82239980D01*
X97064082Y-82722525D01*
X96924087Y-82383710D01*
X96617901Y-82076990D01*
X96396395Y-81985012D01*
X97664617Y-81985012D01*
X98500000Y-82820395D01*
X99335383Y-81985012D01*
X99260952Y-81740910D01*
X115438695Y-81740910D01*
X115805640Y-82236343D01*
X117211171Y-82829736D01*
X118736793Y-82840087D01*
X120150246Y-82265819D01*
X120194360Y-82236343D01*
X120561305Y-81740910D01*
X118000000Y-79179605D01*
X115438695Y-81740910D01*
X99260952Y-81740910D01*
X99260020Y-81737856D01*
X98719166Y-81543084D01*
X98144945Y-81570114D01*
X97739980Y-81737856D01*
X97664617Y-81985012D01*
X96396395Y-81985012D01*
X96217646Y-81910789D01*
X95784256Y-81910411D01*
X95570600Y-81998692D01*
X93785954Y-80214046D01*
X93654757Y-80126383D01*
X93500000Y-80095600D01*
X93414986Y-80095600D01*
X93328632Y-80009095D01*
X93115755Y-79920701D01*
X92885256Y-79920500D01*
X92672225Y-80008522D01*
X92509095Y-80171368D01*
X92420701Y-80384245D01*
X92420500Y-80614744D01*
X77481047Y-80614744D01*
X77829736Y-79788829D01*
X77830089Y-79736793D01*
X114159913Y-79736793D01*
X114734181Y-81150246D01*
X114763657Y-81194360D01*
X115259090Y-81561305D01*
X117820395Y-79000000D01*
X115259090Y-76438695D01*
X114763657Y-76805640D01*
X114170264Y-78211171D01*
X114159913Y-79736793D01*
X77830089Y-79736793D01*
X77840087Y-78263207D01*
X77265819Y-76849754D01*
X77236343Y-76805640D01*
X76740910Y-76438695D01*
X74179605Y-79000000D01*
X73820395Y-79000000D01*
X71259090Y-76438695D01*
X70763657Y-76805640D01*
X70627000Y-77129331D01*
X70627000Y-75627000D01*
X72113560Y-75627000D01*
X71849754Y-75734181D01*
G36*
X120798000Y-123306176D02*
X120777608Y-123275658D01*
X120276978Y-122902627D01*
X117679605Y-125500000D01*
X117693748Y-125514143D01*
X117514143Y-125693748D01*
X117500000Y-125679605D01*
X117485858Y-125693748D01*
X117306253Y-125514143D01*
X117320395Y-125500000D01*
X114723022Y-122902627D01*
X114222392Y-123275658D01*
X113620667Y-124699262D01*
X113609534Y-126244772D01*
X114036933Y-127298000D01*
X111492750Y-127298000D01*
X111876238Y-126374459D01*
X111877758Y-124633181D01*
X111212803Y-123023868D01*
X110912482Y-122723022D01*
X114902627Y-122723022D01*
X117500000Y-125320395D01*
X120097373Y-122723022D01*
X119724342Y-122222392D01*
X118300738Y-121620667D01*
X116755228Y-121609534D01*
X115323104Y-122190689D01*
X115275658Y-122222392D01*
X114902627Y-122723022D01*
X110912482Y-122723022D01*
X109982608Y-121791524D01*
X108374459Y-121123762D01*
X106633181Y-121122242D01*
X105023868Y-121787197D01*
X103791524Y-123017392D01*
X103123762Y-124625541D01*
X103122242Y-126366819D01*
X103506998Y-127298000D01*
X99992750Y-127298000D01*
X100376238Y-126374459D01*
X100377758Y-124633181D01*
X99712803Y-123023868D01*
X98482608Y-121791524D01*
X96874459Y-121123762D01*
X95133181Y-121122242D01*
X93523868Y-121787197D01*
X92291524Y-123017392D01*
X91623762Y-124625541D01*
X91622242Y-126366819D01*
X92006998Y-127298000D01*
X88492750Y-127298000D01*
X88876238Y-126374459D01*
X88877758Y-124633181D01*
X88212803Y-123023868D01*
X86982608Y-121791524D01*
X85374459Y-121123762D01*
X83633181Y-121122242D01*
X82023868Y-121787197D01*
X80791524Y-123017392D01*
X80123762Y-124625541D01*
X80122242Y-126366819D01*
X80506998Y-127298000D01*
X78492750Y-127298000D01*
X78876238Y-126374459D01*
X78877758Y-124633181D01*
X78212803Y-123023868D01*
X76982608Y-121791524D01*
X75374459Y-121123762D01*
X73633181Y-121122242D01*
X72023868Y-121787197D01*
X71202000Y-122607632D01*
X71202000Y-117202000D01*
X120798000Y-117202000D01*
X120798000Y-123306176D01*
X120798000Y-123306176D01*
G37*
X120798000Y-123306176D02*
X120777608Y-123275658D01*
X120276978Y-122902627D01*
X117679605Y-125500000D01*
X117693748Y-125514143D01*
X117514143Y-125693748D01*
X117500000Y-125679605D01*
X117485858Y-125693748D01*
X117306253Y-125514143D01*
X117320395Y-125500000D01*
X114723022Y-122902627D01*
X114222392Y-123275658D01*
X113620667Y-124699262D01*
X113609534Y-126244772D01*
X114036933Y-127298000D01*
X111492750Y-127298000D01*
X111876238Y-126374459D01*
X111877758Y-124633181D01*
X111212803Y-123023868D01*
X110912482Y-122723022D01*
X114902627Y-122723022D01*
X117500000Y-125320395D01*
X120097373Y-122723022D01*
X119724342Y-122222392D01*
X118300738Y-121620667D01*
X116755228Y-121609534D01*
X115323104Y-122190689D01*
X115275658Y-122222392D01*
X114902627Y-122723022D01*
X110912482Y-122723022D01*
X109982608Y-121791524D01*
X108374459Y-121123762D01*
X106633181Y-121122242D01*
X105023868Y-121787197D01*
X103791524Y-123017392D01*
X103123762Y-124625541D01*
X103122242Y-126366819D01*
X103506998Y-127298000D01*
X99992750Y-127298000D01*
X100376238Y-126374459D01*
X100377758Y-124633181D01*
X99712803Y-123023868D01*
X98482608Y-121791524D01*
X96874459Y-121123762D01*
X95133181Y-121122242D01*
X93523868Y-121787197D01*
X92291524Y-123017392D01*
X91623762Y-124625541D01*
X91622242Y-126366819D01*
X92006998Y-127298000D01*
X88492750Y-127298000D01*
X88876238Y-126374459D01*
X88877758Y-124633181D01*
X88212803Y-123023868D01*
X86982608Y-121791524D01*
X85374459Y-121123762D01*
X83633181Y-121122242D01*
X82023868Y-121787197D01*
X80791524Y-123017392D01*
X80123762Y-124625541D01*
X80122242Y-126366819D01*
X80506998Y-127298000D01*
X78492750Y-127298000D01*
X78876238Y-126374459D01*
X78877758Y-124633181D01*
X78212803Y-123023868D01*
X76982608Y-121791524D01*
X75374459Y-121123762D01*
X73633181Y-121122242D01*
X72023868Y-121787197D01*
X71202000Y-122607632D01*
X71202000Y-117202000D01*
X120798000Y-117202000D01*
X120798000Y-123306176D01*
M02*
