M48
;DRILL file {KiCad 4.0.7} date Sunday, 24 March 2019 'PMt' 22:50:02
;FORMAT={-:-/ absolute / inch / decimal}
FMAT,2
INCH,TZ
T1C0.016
T2C0.020
T3C0.022
T4C0.036
T5C0.039
T6C0.043
T7C0.092
T8C0.126
T9C0.157
%
G90
G05
M72
T1
X2.874Y-3.4744
X2.874Y-4.1437
X2.9724Y-3.4744
X2.9823Y-4.1437
X3.5827Y-3.622
X3.5925Y-3.8189
X3.5925Y-3.878
X3.5925Y-3.937
X3.622Y-3.8484
X3.622Y-3.9075
X3.622Y-4.0748
X3.6516Y-3.8189
X3.6516Y-3.878
X3.6516Y-3.937
X3.6614Y-3.1693
X3.6811Y-3.7795
X3.6811Y-3.8484
X3.6811Y-3.9075
X3.7106Y-3.8189
X3.7106Y-3.878
X3.7106Y-3.937
X3.7402Y-3.7795
X3.7402Y-3.8484
X3.7402Y-3.9075
X3.7697Y-3.8189
X3.7697Y-3.878
X3.7697Y-3.937
X3.7992Y-3.8484
X3.7992Y-3.9075
X3.8287Y-3.8189
X3.8287Y-3.878
X3.8287Y-3.937
X3.8583Y-3.7598
X3.8583Y-3.9961
X3.8976Y-3.8189
X3.8976Y-3.8484
X3.8976Y-3.878
X3.8976Y-3.9075
X3.8976Y-3.937
X4.1339Y-4.4488
X4.3235Y-4.4882
X4.3307Y-4.3504
X4.4094Y-4.4094
X4.4094Y-4.4094
X4.4291Y-4.3504
X4.6311Y-4.0945
T4
X3.6024Y-3.2677
X3.7008Y-3.2677
X3.7795Y-3.2677
X3.878Y-3.2677
T5
X3.0799Y-4.5069
X3.1799Y-4.5069
X3.5031Y-4.5069
X3.6031Y-4.5069
X4.3791Y-4.5069
X4.4791Y-4.5069
X4.7047Y-3.8583
X4.7047Y-3.9583
X4.7047Y-4.0583
X4.7047Y-4.1583
T6
X4.6654Y-3.4811
X4.6654Y-3.5811
X4.6654Y-3.6811
T7
X3.4815Y-3.3858
X3.9988Y-3.3858
T8
X2.9134Y-3.1102
X2.9134Y-4.4094
X4.6457Y-3.1102
X4.6457Y-4.4094
T9
X2.9331Y-4.9409
X3.3268Y-4.9409
X3.7795Y-4.9409
X4.2323Y-4.9409
X4.626Y-4.9409
T2
X2.8081Y-3.2874G85X2.8337Y-3.2874
G05
X2.8081Y-3.563G85X2.8337Y-3.563
G05
X2.8081Y-3.9567G85X2.8337Y-3.9567
G05
X2.8081Y-4.2323G85X2.8337Y-4.2323
G05
T3
X2.9272Y-3.3209G85X2.9272Y-3.3327
G05
X2.9272Y-3.5177G85X2.9272Y-3.5295
G05
X2.9272Y-3.9902G85X2.9272Y-4.002
G05
X2.9272Y-4.187G85X2.9272Y-4.1988
G05
T0
M30
